<svg height="117.50197" viewBox="0 0 332.01367 117.50197" width="332.01367" xmlns="http://www.w3.org/2000/svg"><path d="m34.56006 47.64357v2.688h-6.38428v-2.688a.29738.29738 0 0 0 -.33594-.33594h-21.16796a.29719.29719 0 0 0 -.33594.33594v21.21631a.29679.29679 0 0 0 .33594.33593h21.168a.297.297 0 0 0 .33594-.33593v-6.52832h-7.82382v-6.33594h14.208v12.86426a6.39707 6.39707 0 0 1 -1.96826 4.728 6.51719 6.51719 0 0 1 -4.752 1.94385h-21.16786a6.43667 6.43667 0 0 1 -4.728-1.94385 6.43666 6.43666 0 0 1 -1.94388-4.728v-21.21631a6.43747 6.43747 0 0 1 1.94385-4.728 6.43667 6.43667 0 0 1 4.728-1.94385h21.168a6.51719 6.51719 0 0 1 4.752 1.94385 6.39787 6.39787 0 0 1 1.96821 4.728zm26.6875.04834a6.63757 6.63757 0 0 1 6.624 6.624v10.46389h-21.98435v4.12793a.2968.2968 0 0 0 .33593.33594h21.64844v6.28808h-21.64844a6.63676 6.63676 0 0 1 -6.62353-6.624v-14.59182a6.63675 6.63675 0 0 1 6.62353-6.624zm-15.36035 10.752h15.69629v-4.12798a.29739.29739 0 0 0 -.33594-.33594h-15.02442a.297.297 0 0 0 -.33593.33594zm48.71972-10.752a6.63675 6.63675 0 0 1 6.62354 6.624v21.21584h-6.2876v-21.21582a.29739.29739 0 0 0 -.33594-.33594h-15.02441a.297.297 0 0 0 -.33594.33594v21.21582h-6.28808v-27.83984zm33.69532 0h6.28808v21.21582a6.63676 6.63676 0 0 1 -6.624 6.624h-15.02395a6.596 6.596 0 0 1 -6.624-6.624v-21.21582h6.28809v21.21582a.2968.2968 0 0 0 .33593.33594h15.02393a.297.297 0 0 0 .33594-.33594z" fill="#565b5c"/><path d="m240.28613 47.30763h-27.792a.29719.29719 0 0 0 -.33594.33594v21.21631a.2968.2968 0 0 0 .33594.33593h27.792v6.33594h-27.792a6.637 6.637 0 0 1 -6.67187-6.67187v-21.21631a6.637 6.637 0 0 1 6.67187-6.67188h27.792zm26.83155.38428h6.28808v21.21582a6.63676 6.63676 0 0 1 -6.624 6.624h-15.02395a6.596 6.596 0 0 1 -6.624-6.624v-21.21582h6.28809v21.21582a.2968.2968 0 0 0 .33593.33594h15.02393a.297.297 0 0 0 .33594-.33594zm17.95166 0h15.45605v6.28809h-15.45605a.2968.2968 0 0 0 -.33594.33594v21.21581h-6.28809v-21.21582a6.63674 6.63674 0 0 1 6.624-6.624zm40.32031 0a6.63757 6.63757 0 0 1 6.624 6.624v10.46389h-21.98435v4.12793a.2968.2968 0 0 0 .33593.33594h21.64844v6.28808h-21.64844a6.63676 6.63676 0 0 1 -6.62353-6.624v-14.59182a6.63675 6.63675 0 0 1 6.62353-6.624zm-15.36035 10.752h15.69629v-4.12798a.29739.29739 0 0 0 -.33594-.33594h-15.02442a.297.297 0 0 0 -.33593.33594z" fill="#45b980"/><path d="m192.00732 71.55372a2.99089 2.99089 0 0 1 -1.22412-.26269l-43.80713-19.60352a3 3 0 0 1 2.45118-5.47656l43.80713 19.60352a3.00066 3.00066 0 0 1 -1.22706 5.73925z" fill="#e6f3eb"/><path d="m192.00732 71.55372a3.00192 3.00192 0 0 1 -2.73681-4.22656c4.3706-9.76611-4.67237-23.875-12.65088-36.32324-7.48047-11.67092-13.94043-21.75049-10.59424-29.22852a3 3 0 0 1 5.47661 2.45118c-2.022 4.51855 4.17578 14.188 10.16944 23.53955 8.79834 13.72754 18.7705 29.28662 13.07568 42.0122a3.00042 3.00042 0 0 1 -2.7398 1.77539z" fill="#aaadad"/><path d="m191.48242 56.58546a2.99085 2.99085 0 0 1 -1.22412-.26269l-32.42969-14.51221a3 3 0 1 1 2.45118-5.47656l32.42968 14.5122a3.00066 3.00066 0 0 1 -1.22705 5.73926z" fill="#e6f3eb"/><path d="m171.44531 117.502a3.00195 3.00195 0 0 1 -2.73633-4.22657c2.022-4.51855-4.17578-14.18847-10.16943-23.54-8.79834-13.72705-18.771-29.28613-13.07617-42.01171a3 3 0 1 1 5.47656 2.45117c-4.3706 9.76611 4.67285 23.875 12.65088 36.32324 7.481 11.6709 13.94092 21.751 10.59473 29.22852a3.00062 3.00062 0 0 1 -2.74024 1.77535z" fill="#a2dcbf"/><path d="m181.15479 81.43068a2.99091 2.99091 0 0 1 -1.22413-.2627l-32.42966-14.51221a3 3 0 1 1 2.45117-5.47656l32.42969 14.51221a3.00067 3.00067 0 0 1 -1.22705 5.73926z" fill="#e6f3eb"/><path d="m170.78857 110.27638a2.9987 2.9987 0 0 1 -1.22412-.2627l-38.07177-17.0371a3 3 0 0 1 2.45117-5.47658l38.07177 17.03711a3.00066 3.00066 0 0 1 -1.22705 5.73926z" fill="#e6f3eb"/><path d="m127.63818 97.89845a3.00194 3.00194 0 0 1 -2.73632-4.22656c3.34619-7.47754 15.167-9.377 28.85449-11.5752 14.59814-2.34521 31.14355-5.00293 35.51416-14.76953a3 3 0 0 1 5.47656 2.45117c-5.69434 12.7251-23.94092 15.65625-40.03906 18.24219-10.96729 1.76172-22.30713 3.583-24.32959 8.10254a3.0006 3.0006 0 0 1 -2.74024 1.77539z" fill="#aaadad"/><path d="m207.07324 30.07716a2.99085 2.99085 0 0 1 -1.22412-.26269l-37.74267-16.88965a3 3 0 1 1 2.45117-5.47657l37.74267 16.88965a3.00066 3.00066 0 0 1 -1.227 5.73926z" fill="#e6f3eb"/><path d="m148.2002 51.95021a3.00194 3.00194 0 0 1 -2.73682-4.22656c5.69482-12.72559 23.94141-15.65674 40.04-18.24268 10.96679-1.76123 22.30713-3.583 24.3291-8.102a3 3 0 1 1 5.47656 2.45117c-3.34619 7.478-15.167 9.37647-28.854 11.5752-14.59863 2.34472-31.14453 5.00293-35.51514 14.76953a3.00042 3.00042 0 0 1 -2.7397 1.77534z" fill="#a2dcbf"/></svg>