<svg xmlns="http://www.w3.org/2000/svg" xmlns:xlink="http://www.w3.org/1999/xlink" viewBox="0 0 81.78 41.47">
    <defs>
        <style>
            .cls-1{fill:none;}.cls-2{clip-path:url(#clip-path);}.cls-3{fill:#0e76bc;}.cls-4{fill:#808285;}
        </style>
        <clipPath id="clip-path" transform="translate(0 0)">
            <rect id="SVGID" width="81.78" height="41.47" class="cls-1"/>
        </clipPath>
    </defs>
    <title>
        Asset 1
    </title>
    <g id="Layer_2" data-name="Layer 2">
        <g id="Layer_1-2" data-name="Layer 1">
            <g id="_Group_" data-name="&lt;Group&gt;">
                <g class="cls-2">
                    <path d="M24.47,10a7.87,7.87,0,0,0,3.75-.29,7.32,7.32,0,0,0,3.4-2.1,3.38,3.38,0,0,0,.94-3.42A3.24,3.24,0,0,0,29.88,2a7.28,7.28,0,0,0-3.88.2,7.05,7.05,0,0,0-4.09,2.67,3.16,3.16,0,0,0-.44,2.77,3.47,3.47,0,0,0,3,2.39M80.1,25.25,79,26a9.14,9.14,0,0,1-5.24,1.77,7.15,7.15,0,0,1-5.28-2.08,8.69,8.69,0,0,1-2-5.5.85.85,0,0,1,.54-.91,10.18,10.18,0,0,1,1.28,0H79.19A3,3,0,0,0,81,18.86a2.85,2.85,0,0,0,.8-2.42,6.27,6.27,0,0,0-3.15-5.31A14.88,14.88,0,0,0,70.13,9Q63.26,9,59,12.6A14.51,14.51,0,0,0,57.63,14a3.35,3.35,0,0,0,0-.37.68.68,0,0,0-.23-.58,1.74,1.74,0,0,0-1.16-.31H53a2.68,2.68,0,0,1-1.81-.68c-.23-.19-.36-.71-.36-1.6a20.08,20.08,0,0,1,.41-4.18c.45-1.9,1-3.56,1.92-3.86a.84.84,0,0,1,1,.49A26,26,0,0,0,55.47,6a4.06,4.06,0,0,0,3.62,2.32Q60.63,8.36,62,6a7.67,7.67,0,0,0,1.06-3.35c0-.83-.41-1.11-1.37-1.66a8.57,8.57,0,0,0-4.39-1A20.19,20.19,0,0,0,48.4,2.32q-6,3-7.48,8a10.85,10.85,0,0,1-.67,1.78,1.58,1.58,0,0,1-1,.54c-1.48.42-1.78.28-2.34.46s-.86.37-.86.92c0,.21.16.31.68.42l2,.27c.61.08,1.58.55,1.66,1.16a11.85,11.85,0,0,1,.09,1.66v6a19,19,0,0,1-.34,4.9c-.22.55-1,.91-2.29,1.08a9.55,9.55,0,0,1-2.81.05,2.81,2.81,0,0,1-1.84-1.08,5.21,5.21,0,0,1-.31-2.17V9.66c0-.55-.24-.82-.61-.82a6.25,6.25,0,0,0-1.7.72,25,25,0,0,1-9.72,3,7,7,0,0,0-2,.31.92.92,0,0,0-.57.55c-.08.48.17.53.72.66.2,0,.52.1,1.34.21,1,.14,1.69.44,2,.93a13.8,13.8,0,0,1,.26,3.33v4.83a19.43,19.43,0,0,1-.33,4.85c-.23.55-1,.91-2.3,1.08a9.66,9.66,0,0,1-3,.06,2.82,2.82,0,0,1-1.83-1.09,5,5,0,0,1-.31-2.16v-22a5.31,5.31,0,0,0-.15-1.58.7.7,0,0,0-.73-.38A16.82,16.82,0,0,0,10,3.46,22.24,22.24,0,0,1,3.25,4.85C1.87,5,1.84,4.83,1,5c-.46.08-1,.35-1,.8s.55.44,1.7.7C3.83,6.94,4.49,8,4.49,9.62V23.56a18.71,18.71,0,0,1-.34,4.85c-.22.55-1,.91-2.29,1.08S.1,29.5.1,30.16s.47.6,1.4.6c.17,0,1.27,0,3.3-.08s3.84-.07,5.42-.07c1,0,2.22,0,3.79.07s2.57.08,3,.08h2.58c.14,0,1,0,2.68-.08s3.67-.07,6-.07c1,0,2.27,0,3.92.07s2.63.08,2.94.08h2.33l2.32-.08c1.44-.05,3-.07,4.59-.07,1.82,0,3.84,0,6,.07l3.35.08c.93,0,1.4,0,1.4-.64s-.59-.36-1.76-.53a3.11,3.11,0,0,1-2.19-.93,4.48,4.48,0,0,1-.44-2.32v-8.5c0-1.38.33-2.15,1-2.33a6,6,0,0,1,1.14-.1h3a2.11,2.11,0,0,0,.75-.12,9.65,9.65,0,0,0-1.49,5.23,9.81,9.81,0,0,0,3.36,7.41q3.84,3.56,10.61,3.55a16,16,0,0,0,9.38-2.56c1.81-1.26,2.72-2.35,2.72-3.27,0-.76-.8-.66-1.17-.4m-10-14.61a2,2,0,0,1,2.64.5,6.87,6.87,0,0,1,.35,2.48c0,1.85-1,3-5.28,2.78a1,1,0,0,1-1.06-1.1c0-1.15.78-3.18,3.35-4.66" class="cls-3" transform="translate(0 0)"/>
                    <path d="M2,36.17a3.86,3.86,0,0,1,.9.1,1.82,1.82,0,0,1,.61.28A1.06,1.06,0,0,1,3.8,37a1.34,1.34,0,0,1,.11.58,1.05,1.05,0,0,1-.21.66,1.22,1.22,0,0,1-.29.26,1.42,1.42,0,0,1-.41.2,1.52,1.52,0,0,1,.79.42,1.06,1.06,0,0,1,.26.74A1.47,1.47,0,0,1,3.55,41a1.88,1.88,0,0,1-.61.33,2.91,2.91,0,0,1-.82.11h-2V36.17ZM1.17,37v1.41h.71a1.68,1.68,0,0,0,.41,0,.64.64,0,0,0,.29-.12A.55.55,0,0,0,2.77,38a.84.84,0,0,0,.06-.33,1,1,0,0,0-.05-.33.47.47,0,0,0-.16-.22A.65.65,0,0,0,2.34,37,1.51,1.51,0,0,0,2,37Zm.93,3.58a1.31,1.31,0,0,0,.43-.06.73.73,0,0,0,.27-.17.72.72,0,0,0,.14-.24,1.26,1.26,0,0,0,0-.28.82.82,0,0,0,0-.28.48.48,0,0,0-.15-.22.68.68,0,0,0-.27-.13,1.31,1.31,0,0,0-.42-.05H1.17v1.43Z" class="cls-4" transform="translate(0 0)"/>
                    <rect width="1.09" height="5.24" x="8.49" y="36.17" class="cls-4"/>
                    <path d="M19.35,38.79a2.9,2.9,0,0,1-.19,1.07,2.4,2.4,0,0,1-.55.84,2.5,2.5,0,0,1-.84.57,3.13,3.13,0,0,1-2.2,0,2.65,2.65,0,0,1-.85-.57,2.38,2.38,0,0,1-.54-.84,2.91,2.91,0,0,1-.2-1.07,2.82,2.82,0,0,1,.2-1.06,2.42,2.42,0,0,1,.54-.85,2.62,2.62,0,0,1,.85-.56,3.12,3.12,0,0,1,2.2,0,2.47,2.47,0,0,1,.84.56,2.54,2.54,0,0,1,.55.85,2.85,2.85,0,0,1,.19,1.06m-1.11,0a2.45,2.45,0,0,0-.1-.74,1.56,1.56,0,0,0-.32-.55,1.23,1.23,0,0,0-.49-.35,1.76,1.76,0,0,0-.66-.12,1.69,1.69,0,0,0-.66.12,1.26,1.26,0,0,0-.5.35,1.55,1.55,0,0,0-.31.55,2.45,2.45,0,0,0-.11.74,2.35,2.35,0,0,0,.11.74,1.59,1.59,0,0,0,.31.56,1.5,1.5,0,0,0,.5.35,1.69,1.69,0,0,0,.66.12,1.76,1.76,0,0,0,.66-.12,1.46,1.46,0,0,0,.49-.35,1.61,1.61,0,0,0,.32-.56,2.37,2.37,0,0,0,.1-.74" class="cls-4" transform="translate(0 0)"/>
                    <path d="M26.59,37.18a.4.4,0,0,1-.1.12.25.25,0,0,1-.13,0,.35.35,0,0,1-.18-.06L26,37.16,25.69,37a1.06,1.06,0,0,0-.37-.06.86.86,0,0,0-.57.17.57.57,0,0,0-.18.44.43.43,0,0,0,.1.29.93.93,0,0,0,.27.19,1.88,1.88,0,0,0,.38.15l.44.14.43.19a1.48,1.48,0,0,1,.39.26,1.23,1.23,0,0,1,.27.39,1.52,1.52,0,0,1,.1.56,1.7,1.7,0,0,1-.13.67,1.51,1.51,0,0,1-.36.54,1.52,1.52,0,0,1-.57.37,2.18,2.18,0,0,1-.79.13,2.72,2.72,0,0,1-.49,0,2.43,2.43,0,0,1-.48-.14,2.18,2.18,0,0,1-.43-.22,1.66,1.66,0,0,1-.35-.28l.31-.51a.36.36,0,0,1,.11-.1.33.33,0,0,1,.13,0,.37.37,0,0,1,.21.08l.25.16a1.7,1.7,0,0,0,.33.15,1.15,1.15,0,0,0,.44.08.87.87,0,0,0,.59-.18.61.61,0,0,0,.21-.51.46.46,0,0,0-.11-.32.69.69,0,0,0-.26-.21,3.35,3.35,0,0,0-.38-.14l-.44-.13a3.38,3.38,0,0,1-.44-.18,1.22,1.22,0,0,1-.38-.26,1.38,1.38,0,0,1-.27-.42,1.72,1.72,0,0,1-.1-.61,1.38,1.38,0,0,1,.12-.56,1.28,1.28,0,0,1,.34-.49,1.6,1.6,0,0,1,.55-.34,1.9,1.9,0,0,1,.75-.13,2.48,2.48,0,0,1,.87.14,2,2,0,0,1,.68.41Z" class="cls-4" transform="translate(0 0)"/>
                    <path d="M34.91,40.12a.26.26,0,0,1,.16.07l.43.46a2.13,2.13,0,0,1-.79.61,2.78,2.78,0,0,1-1.13.21,2.69,2.69,0,0,1-1-.2,2.18,2.18,0,0,1-.8-.56,2.5,2.5,0,0,1-.51-.85,3.29,3.29,0,0,1-.17-1.07,3,3,0,0,1,.08-.74,2.66,2.66,0,0,1,.25-.65,2.59,2.59,0,0,1,.39-.53,2.29,2.29,0,0,1,.52-.41,2.53,2.53,0,0,1,.63-.26,3.4,3.4,0,0,1,.73-.08,2.83,2.83,0,0,1,1,.19,2.32,2.32,0,0,1,.41.22,1.54,1.54,0,0,1,.34.28l-.36.49a.38.38,0,0,1-.09.09.26.26,0,0,1-.14,0,.32.32,0,0,1-.17-.06l-.22-.14a1.41,1.41,0,0,0-.32-.13,1.68,1.68,0,0,0-.49-.06,1.46,1.46,0,0,0-.6.12,1.21,1.21,0,0,0-.47.34,1.83,1.83,0,0,0-.31.55,2.48,2.48,0,0,0-.1.75,2.19,2.19,0,0,0,.11.75,1.79,1.79,0,0,0,.32.56,1.48,1.48,0,0,0,.48.35,1.43,1.43,0,0,0,.58.11H34l.27-.07a.8.8,0,0,0,.25-.11,1.5,1.5,0,0,0,.23-.17l.08-.05.09,0" class="cls-4" transform="translate(0 0)"/>
                    <rect width="1.09" height="5.24" x="39.72" y="36.17" class="cls-4"/>
                    <polygon points="46.6 37.02 46.6 38.37 48.35 38.37 48.35 39.19 46.6 39.19 46.6 40.56 48.85 40.56 48.85 41.41 45.51 41.41 45.51 36.17 48.85 36.17 48.85 37.02 46.6 37.02" class="cls-4"/>
                    <path d="M57.76,36.17v5.24H57.2a.41.41,0,0,1-.21,0,.44.44,0,0,1-.17-.14L54.2,37.91a2,2,0,0,1,0,.25c0,.08,0,.15,0,.22v3h-1V36.17H54l.09,0,.07.06.08.08,2.63,3.34a2.45,2.45,0,0,1,0-.27,1.93,1.93,0,0,1,0-.24v-3Z" class="cls-4" transform="translate(0 0)"/>
                    <path d="M66,40.12a.26.26,0,0,1,.16.07l.42.46a2,2,0,0,1-.78.61,2.78,2.78,0,0,1-1.13.21,2.69,2.69,0,0,1-1.05-.2,2.18,2.18,0,0,1-.8-.56,2.5,2.5,0,0,1-.51-.85,3.29,3.29,0,0,1-.17-1.07,3,3,0,0,1,.08-.74,2.66,2.66,0,0,1,.25-.65,2.59,2.59,0,0,1,.39-.53,2.29,2.29,0,0,1,.52-.41A2.53,2.53,0,0,1,64,36.2a3.4,3.4,0,0,1,.73-.08,2.83,2.83,0,0,1,1,.19,2.32,2.32,0,0,1,.41.22,1.54,1.54,0,0,1,.34.28l-.36.49a.38.38,0,0,1-.09.09.26.26,0,0,1-.14,0,.32.32,0,0,1-.17-.06l-.22-.14a1.41,1.41,0,0,0-.32-.13,1.68,1.68,0,0,0-.49-.06,1.46,1.46,0,0,0-.6.12,1.21,1.21,0,0,0-.47.34,1.83,1.83,0,0,0-.31.55,2.47,2.47,0,0,0-.11.75,2.19,2.19,0,0,0,.12.75,1.79,1.79,0,0,0,.32.56,1.48,1.48,0,0,0,.48.35,1.43,1.43,0,0,0,.58.11h.34l.28-.07a.86.86,0,0,0,.24-.11,1.5,1.5,0,0,0,.23-.17l.08-.05.09,0" class="cls-4" transform="translate(0 0)"/>
                    <polygon points="71.93 37.02 71.93 38.37 73.67 38.37 73.67 39.19 71.93 39.19 71.93 40.56 74.17 40.56 74.17 41.41 70.83 41.41 70.83 36.17 74.17 36.17 74.17 37.02 71.93 37.02" class="cls-4"/>
                    <path d="M81.43,37.18a.63.63,0,0,1-.1.12.29.29,0,0,1-.14,0,.32.32,0,0,1-.17-.06l-.22-.12L80.52,37a1,1,0,0,0-.37-.06.81.81,0,0,0-.56.17.55.55,0,0,0-.19.44.43.43,0,0,0,.1.29.93.93,0,0,0,.27.19,2.15,2.15,0,0,0,.38.15l.44.14.44.19a1.42,1.42,0,0,1,.38.26,1.23,1.23,0,0,1,.27.39,1.34,1.34,0,0,1,.1.56,1.89,1.89,0,0,1-.12.67,1.51,1.51,0,0,1-.36.54,1.65,1.65,0,0,1-.58.37,2.13,2.13,0,0,1-.78.13,2.83,2.83,0,0,1-.5,0,2.9,2.9,0,0,1-.48-.14,2.49,2.49,0,0,1-.43-.22,2,2,0,0,1-.35-.28l.32-.51a.32.32,0,0,1,.1-.1.37.37,0,0,1,.14,0,.37.37,0,0,1,.2.08,2.56,2.56,0,0,1,.25.16,2.52,2.52,0,0,0,.33.15,1.17,1.17,0,0,0,.45.08.86.86,0,0,0,.58-.18.61.61,0,0,0,.21-.51.46.46,0,0,0-.1-.32.82.82,0,0,0-.27-.21,2.77,2.77,0,0,0-.38-.14l-.44-.13a3.25,3.25,0,0,1-.43-.18,1.12,1.12,0,0,1-.38-.26,1.38,1.38,0,0,1-.27-.42,1.51,1.51,0,0,1-.11-.61,1.38,1.38,0,0,1,.12-.56,1.39,1.39,0,0,1,.34-.49,1.6,1.6,0,0,1,.55-.34,2,2,0,0,1,.75-.13,2.5,2.5,0,0,1,.88.14,2.2,2.2,0,0,1,.68.41Z" class="cls-4" transform="translate(0 0)"/>
                </g>
            </g>
        </g>
    </g>
</svg>
