<?xml version="1.0" encoding="utf-8"?>
<!-- Generator: Adobe Illustrator 22.0.1, SVG Export Plug-In . SVG Version: 6.00 Build 0)  -->
<svg version="1.1" id="Layer_1" xmlns="http://www.w3.org/2000/svg" xmlns:xlink="http://www.w3.org/1999/xlink" x="0px" y="0px"
	 viewBox="0 0 947.1 394.7" style="enable-background:new 0 0 947.1 394.7;" xml:space="preserve">
<style type="text/css">
	.st0{fill:#00609C;}
	.st1{fill:#323E48;}
</style>
<path class="st0" d="M232.9,211.8c-3.4,6.6-8.5,12.2-15.2,17c-6.7,4.7-15.2,8.4-25.3,10.9c-10.1,2.6-22,3.9-35.4,3.9
	c-13.5,0-25.3-1.3-35.4-3.9c-10.1-2.6-18.6-6.2-25.4-10.9c-6.8-4.7-11.9-10.4-15.3-17c-3.4-6.6-5.1-13.9-5.1-21.9V79.6h14.6V191
	c0,5.4,1.4,10.5,4.3,15.3c2.8,4.8,7.1,9,12.7,12.6c5.6,3.6,12.6,6.4,20.8,8.5c8.3,2.1,17.9,3.2,28.8,3.2c10.8,0,20.4-1.1,28.7-3.2
	c8.3-2.1,15.2-5,20.8-8.5c5.6-3.6,9.8-7.8,12.7-12.6c2.8-4.8,4.3-9.9,4.3-15.3V79.6H238v110.2C238,197.9,236.3,205.2,232.9,211.8z"
	/>
<path class="st0" d="M433,240.4L293.3,98.8v141.5h-14.6V79.6h16.1l139.7,142v-142h14.4v160.7H433z"/>
<path class="st0" d="M490.9,240.4V79.6h14.6v160.7H490.9z"/>
<path class="st0" d="M618.9,93v147.4h-14.5V93h-73.1V79.6H692V93H618.9z"/>
<path class="st0" d="M802.5,172.3v68.1h-14.6v-68.1l-75.4-92.6h17.4l65.4,80.5l65.2-80.5h17.5L802.5,172.3z"/>
<g>
	<path class="st1" d="M170.7,306.1c-0.3-0.9-0.8-1.7-1.5-2.4c-0.7-0.7-1.5-1.2-2.6-1.6c-0.5-0.2-1.1-0.4-1.7-0.5
		c0.2-0.1,0.5-0.2,0.7-0.3c0.8-0.3,1.4-0.8,1.9-1.3c0.5-0.5,0.9-1.2,1.1-1.9c0.2-0.7,0.4-1.6,0.4-2.5c0-1.1-0.1-2-0.4-2.8
		c-0.3-0.8-0.7-1.5-1.2-2.1c-0.5-0.6-1.1-1-1.8-1.4c-0.7-0.3-1.4-0.6-2.2-0.8c-0.8-0.2-1.6-0.3-2.4-0.4c-0.8-0.1-1.7-0.1-2.5-0.1
		l-16.6,0v29.5h17c1.1,0,2.1,0,3.1-0.1c1-0.1,2-0.2,2.9-0.5c0.9-0.2,1.7-0.5,2.5-0.9c0.8-0.4,1.4-0.9,2-1.5c0.6-0.6,1-1.4,1.3-2.2
		c0.3-0.9,0.5-1.9,0.5-3C171.2,308.1,171,307,170.7,306.1z M145.3,291.1h12.4c1.3,0,2.4,0.1,3.3,0.2c0.9,0.1,1.7,0.3,2.3,0.5
		c0.6,0.2,1.1,0.5,1.4,0.8c0.3,0.3,0.6,0.6,0.8,0.9c0.2,0.3,0.3,0.7,0.3,1c0.1,0.4,0.1,0.8,0.1,1.2c0,0.6-0.1,1.3-0.3,1.8
		c-0.2,0.5-0.5,1-1.1,1.4c-0.5,0.4-1.4,0.8-2.5,1c-1.1,0.3-2.6,0.4-4.4,0.4h-12.4V291.1z M167.2,311.6c-0.3,0.6-0.7,1.2-1.4,1.6
		c-0.7,0.4-1.6,0.7-2.8,0.9c-1.2,0.2-2.6,0.3-4.3,0.3h-13.4v-10.9h13.1c1.7,0,3.1,0.1,4.3,0.3c1.2,0.2,2.2,0.6,2.9,1
		c0.7,0.5,1.3,1,1.6,1.7c0.3,0.7,0.5,1.6,0.5,2.6C167.7,310.1,167.5,310.9,167.2,311.6z"/>
	<path class="st1" d="M254.3,295.9c-1-1.9-2.3-3.5-4-4.8c-1.7-1.2-3.6-2.2-5.9-2.8c-2.3-0.6-4.7-0.9-7.3-0.9c-1.7,0-3.4,0.1-5,0.4
		c-1.6,0.3-3.1,0.7-4.5,1.2c-1.4,0.6-2.7,1.2-3.8,2.1c-1.1,0.8-2.1,1.8-2.9,3c-0.8,1.1-1.4,2.4-1.9,3.9c-0.4,1.4-0.7,3-0.7,4.8
		c0,2.6,0.5,4.9,1.4,6.9c1,1.9,2.3,3.5,4,4.8c1.7,1.2,3.7,2.2,5.9,2.8c2.3,0.6,4.7,0.9,7.3,0.9c2.6,0,5-0.3,7.3-0.9
		c2.3-0.6,4.2-1.5,5.9-2.8c1.7-1.3,3-2.9,4-4.8c1-1.9,1.4-4.2,1.4-6.9C255.8,300.1,255.3,297.9,254.3,295.9z M251.4,308
		c-0.6,1.5-1.6,2.8-2.8,3.8c-1.3,1-2.8,1.8-4.7,2.4c-1.9,0.5-4.1,0.8-6.6,0.8c-2.5,0-4.7-0.3-6.6-0.8c-1.9-0.5-3.5-1.3-4.8-2.4
		c-1.3-1-2.2-2.3-2.9-3.8c-0.7-1.5-1-3.3-1-5.2c0-2,0.3-3.7,1-5.2c0.6-1.5,1.6-2.8,2.9-3.8c1.3-1,2.9-1.8,4.8-2.4
		c1.9-0.5,4.1-0.8,6.6-0.8c2.5,0,4.7,0.3,6.6,0.8c1.9,0.5,3.5,1.3,4.7,2.4c1.3,1,2.2,2.3,2.8,3.8c0.6,1.5,1,3.3,1,5.3
		C252.3,304.8,252,306.5,251.4,308z"/>
	<polygon class="st1" points="276.6,291.1 289.7,291.1 289.7,317.5 293.1,317.5 293.1,291.1 306.2,291.1 306.2,288 276.6,288 	"/>
	<polygon class="st1" points="335.2,303.5 355.2,303.5 355.2,300.3 335.2,300.3 335.2,291.2 356.3,291.2 356.3,288 331.6,288 
		331.6,317.5 356.6,317.5 356.6,314.3 335.2,314.3 	"/>
	<rect x="192.7" y="288" class="st1" width="3.4" height="29.5"/>
	<polygon class="st1" points="616,288 612.6,288 612.6,317.5 637,317.5 637,314.3 616,314.3 	"/>
	<path class="st1" d="M410.2,289.2c-1-0.3-2-0.7-3.1-0.9c-1.1-0.3-2.2-0.5-3.4-0.6c-1.2-0.1-2.5-0.2-3.9-0.2c-1.7,0-3.4,0.1-5,0.4
		c-1.6,0.3-3.1,0.7-4.5,1.3c-1.4,0.6-2.6,1.3-3.8,2.1c-1.1,0.9-2.1,1.8-2.9,3c-0.8,1.1-1.4,2.4-1.9,3.8c-0.4,1.4-0.6,3-0.6,4.7
		c0,1.7,0.2,3.2,0.6,4.6c0.4,1.4,1.1,2.7,1.9,3.8c0.8,1.1,1.8,2.1,2.9,3c1.1,0.9,2.4,1.6,3.8,2.1c1.4,0.6,2.9,1,4.5,1.3
		c1.6,0.3,3.2,0.4,5,0.4c1.4,0,2.7-0.1,3.9-0.2c1.2-0.1,2.3-0.3,3.4-0.6c1.1-0.3,2.1-0.6,3.1-0.9c1-0.3,2-0.7,3-1.2l0.2-0.1V311
		l-0.6,0.4c-0.7,0.5-1.5,0.9-2.4,1.4c-0.9,0.4-1.9,0.8-2.9,1.1c-1,0.3-2.2,0.6-3.4,0.8c-1.2,0.2-2.5,0.3-3.8,0.3
		c-2.7,0-5.1-0.3-7.1-0.9c-2-0.6-3.6-1.4-4.9-2.5c-1.3-1.1-2.2-2.3-2.8-3.8c-0.6-1.5-0.9-3.2-0.9-5.1c0-1.9,0.3-3.6,0.9-5.1
		c0.6-1.5,1.5-2.8,2.8-3.8c1.3-1.1,2.9-1.9,4.9-2.5c2-0.6,4.3-0.9,7.1-0.9c1.4,0,2.6,0.1,3.8,0.3c1.2,0.2,2.3,0.5,3.3,0.8
		c1,0.3,2,0.7,2.9,1.1c0.9,0.4,1.7,0.9,2.5,1.4l0.6,0.4v-4.1l-0.2-0.1C412.1,289.9,411.1,289.5,410.2,289.2z"/>
	<path class="st1" d="M691.8,295.9c-1-1.9-2.3-3.5-4-4.8c-1.7-1.2-3.6-2.2-5.9-2.8c-2.2-0.6-4.7-0.9-7.3-0.9c-1.7,0-3.4,0.1-5,0.4
		c-1.6,0.3-3.1,0.7-4.5,1.2c-1.4,0.6-2.6,1.2-3.8,2.1c-1.1,0.8-2.1,1.8-2.9,3c-0.8,1.1-1.4,2.4-1.9,3.9c-0.4,1.4-0.7,3-0.7,4.8
		c0,2.6,0.5,4.9,1.4,6.9c1,1.9,2.3,3.5,4,4.8c1.7,1.2,3.7,2.2,5.9,2.8c2.3,0.6,4.7,0.9,7.3,0.9c2.6,0,5-0.3,7.3-0.9
		c2.3-0.6,4.2-1.5,5.9-2.8c1.7-1.3,3-2.9,4-4.8c1-1.9,1.4-4.2,1.4-6.9C693.2,300.1,692.8,297.9,691.8,295.9z M688.8,308
		c-0.6,1.5-1.6,2.8-2.8,3.8c-1.3,1-2.8,1.8-4.7,2.4c-1.9,0.5-4.1,0.8-6.6,0.8c-2.5,0-4.7-0.3-6.7-0.8c-1.9-0.5-3.5-1.3-4.8-2.4
		c-1.3-1-2.2-2.3-2.9-3.8c-0.6-1.5-1-3.3-1-5.2c0-2,0.3-3.7,1-5.2c0.6-1.5,1.6-2.8,2.9-3.8c1.3-1,2.8-1.8,4.8-2.4
		c1.9-0.5,4.1-0.8,6.7-0.8c2.5,0,4.7,0.3,6.6,0.8c1.9,0.5,3.5,1.3,4.7,2.4c1.3,1,2.2,2.3,2.8,3.8c0.6,1.5,1,3.3,1,5.3
		C689.8,304.8,689.5,306.5,688.8,308z"/>
	<polygon class="st1" points="800.1,288 788.6,302.2 777.1,288 773,288 786.9,305.1 786.9,317.5 790.3,317.5 790.3,305.1 804.2,288 
			"/>
	<path class="st1" d="M732.6,305.6h11.7v8.1c-0.5,0.1-1,0.3-1.7,0.4c-0.8,0.2-1.6,0.3-2.6,0.4c-0.9,0.1-1.9,0.2-3,0.3
		c-1.1,0.1-2.1,0.1-3.2,0.1c-2.7,0-5.1-0.3-7.2-0.9c-2-0.6-3.7-1.5-5-2.5c-1.3-1.1-2.3-2.4-3-3.8c-0.7-1.5-1-3.1-1-4.9
		c0-1.9,0.3-3.6,1-5.1c0.7-1.5,1.7-2.8,3-3.8c1.3-1,3-1.9,5.1-2.4c2-0.6,4.4-0.9,7.2-0.9c1.3,0,2.6,0.1,3.8,0.3
		c1.2,0.2,2.3,0.5,3.3,0.8c1,0.3,2,0.7,2.9,1.1c0.9,0.4,1.7,0.9,2.5,1.4l0.6,0.4v-4.1l-0.2-0.1c-1-0.4-2-0.8-3-1.1
		c-1-0.3-2-0.6-3.1-0.9c-1.1-0.3-2.2-0.4-3.3-0.6c-1.2-0.1-2.4-0.2-3.7-0.2c-1.8,0-3.5,0.1-5.1,0.4c-1.6,0.3-3.2,0.7-4.6,1.2
		c-1.4,0.5-2.7,1.2-3.9,2.1c-1.2,0.8-2.2,1.8-3,3c-0.8,1.1-1.5,2.4-1.9,3.9c-0.5,1.4-0.7,3-0.7,4.7c0,2.6,0.5,4.8,1.5,6.8
		c1,1.9,2.4,3.5,4.1,4.8c1.7,1.3,3.8,2.2,6.1,2.8c2.3,0.6,4.9,0.9,7.6,0.9c1.3,0,2.6-0.1,3.8-0.1c1.2-0.1,2.4-0.3,3.5-0.4
		c1.1-0.2,2.2-0.4,3.3-0.7c1.1-0.3,2.1-0.6,3.2-1l0.3-0.1v-13.3h-15.1V305.6z"/>
	<polygon class="st1" points="469,300.4 444,300.4 444,288 440.6,288 440.6,317.5 444,317.5 444,303.5 469,303.5 469,317.5 
		472.4,317.5 472.4,288 469,288 	"/>
	<path class="st1" d="M588.4,295.9c-1-1.9-2.3-3.5-4-4.8c-1.7-1.2-3.6-2.2-5.9-2.8c-2.3-0.6-4.7-0.9-7.3-0.9c-1.7,0-3.4,0.1-5,0.4
		c-1.6,0.3-3.1,0.7-4.5,1.2c-1.4,0.6-2.7,1.2-3.8,2.1c-1.1,0.8-2.1,1.8-2.9,3c-0.8,1.1-1.4,2.4-1.9,3.9c-0.4,1.4-0.7,3-0.7,4.8
		c0,2.6,0.5,4.9,1.4,6.9c1,1.9,2.3,3.5,4,4.8c1.7,1.2,3.7,2.2,5.9,2.8c2.3,0.6,4.7,0.9,7.3,0.9c2.6,0,5-0.3,7.3-0.9
		c2.3-0.6,4.2-1.5,5.9-2.8c1.7-1.3,3-2.9,4-4.8c1-1.9,1.4-4.2,1.4-6.9C589.9,300.1,589.4,297.9,588.4,295.9z M585.5,308
		c-0.6,1.5-1.6,2.8-2.8,3.8c-1.3,1-2.8,1.8-4.7,2.4c-1.9,0.5-4.1,0.8-6.6,0.8c-2.5,0-4.7-0.3-6.6-0.8c-1.9-0.5-3.5-1.3-4.8-2.4
		c-1.3-1-2.2-2.3-2.9-3.8c-0.6-1.5-1-3.3-1-5.2c0-2,0.3-3.7,1-5.2c0.6-1.5,1.6-2.8,2.9-3.8c1.3-1,2.8-1.8,4.8-2.4
		c1.9-0.5,4.1-0.8,6.6-0.8c2.5,0,4.7,0.3,6.6,0.8c1.9,0.5,3.5,1.3,4.7,2.4c1.3,1,2.2,2.3,2.8,3.8c0.6,1.5,1,3.3,1,5.3
		C586.5,304.8,586.1,306.5,585.5,308z"/>
	<polygon class="st1" points="527.5,312.8 503.1,288 499.6,288 499.6,317.5 503,317.5 503,292.7 527.5,317.5 530.9,317.5 530.9,288 
		527.5,288 	"/>
</g>
</svg>
